<svg xmlns="http://www.w3.org/2000/svg" viewBox="0 0 1200 720" width="1200" height="720">
  <defs>
    <linearGradient id="bgGrad" x1="0%" y1="0%" x2="100%" y2="100%">
      <stop offset="0%" stop-color="#0D1117"/>
      <stop offset="100%" stop-color="#161B2E"/>
    </linearGradient>
    <linearGradient id="win1Header" x1="0%" y1="0%" x2="100%" y2="0%">
      <stop offset="0%" stop-color="#1565C0"/>
      <stop offset="100%" stop-color="#1976D2"/>
    </linearGradient>
    <linearGradient id="win2Header" x1="0%" y1="0%" x2="100%" y2="0%">
      <stop offset="0%" stop-color="#2E7D32"/>
      <stop offset="100%" stop-color="#388E3C"/>
    </linearGradient>
    <linearGradient id="photo1" x1="0%" y1="0%" x2="100%" y2="100%">
      <stop offset="0%" stop-color="#42A5F5"/>
      <stop offset="100%" stop-color="#1565C0"/>
    </linearGradient>
    <linearGradient id="photo2" x1="0%" y1="0%" x2="100%" y2="100%">
      <stop offset="0%" stop-color="#66BB6A"/>
      <stop offset="100%" stop-color="#2E7D32"/>
    </linearGradient>
    <linearGradient id="photo3" x1="0%" y1="0%" x2="100%" y2="100%">
      <stop offset="0%" stop-color="#FFA726"/>
      <stop offset="100%" stop-color="#E65100"/>
    </linearGradient>
    <linearGradient id="photo4" x1="0%" y1="0%" x2="100%" y2="100%">
      <stop offset="0%" stop-color="#AB47BC"/>
      <stop offset="100%" stop-color="#6A1B9A"/>
    </linearGradient>
    <linearGradient id="photo5" x1="0%" y1="0%" x2="100%" y2="100%">
      <stop offset="0%" stop-color="#26C6DA"/>
      <stop offset="100%" stop-color="#006064"/>
    </linearGradient>
    <linearGradient id="photo6" x1="0%" y1="0%" x2="100%" y2="100%">
      <stop offset="0%" stop-color="#EF5350"/>
      <stop offset="100%" stop-color="#B71C1C"/>
    </linearGradient>
    <linearGradient id="badgeGrad" x1="0%" y1="0%" x2="100%" y2="0%">
      <stop offset="0%" stop-color="#1565C0"/>
      <stop offset="100%" stop-color="#2E7D32"/>
    </linearGradient>
    <filter id="shadow" x="-10%" y="-10%" width="120%" height="120%">
      <feDropShadow dx="0" dy="8" stdDeviation="12" flood-color="#000000" flood-opacity="0.5"/>
    </filter>
    <filter id="glowBlue">
      <feGaussianBlur stdDeviation="4" result="coloredBlur"/>
      <feMerge><feMergeNode in="coloredBlur"/><feMergeNode in="SourceGraphic"/></feMerge>
    </filter>
    <clipPath id="win1clip">
      <rect x="60" y="90" width="510" height="560" rx="10"/>
    </clipPath>
    <clipPath id="win2clip">
      <rect x="630" y="90" width="510" height="560" rx="10"/>
    </clipPath>
  </defs>

  <!-- Background -->
  <rect width="1200" height="720" fill="url(#bgGrad)"/>

  <!-- Subtle grid overlay -->
  <g opacity="0.04">
    <line x1="0" y1="120" x2="1200" y2="120" stroke="white" stroke-width="1"/>
    <line x1="0" y1="240" x2="1200" y2="240" stroke="white" stroke-width="1"/>
    <line x1="0" y1="360" x2="1200" y2="360" stroke="white" stroke-width="1"/>
    <line x1="0" y1="480" x2="1200" y2="480" stroke="white" stroke-width="1"/>
    <line x1="0" y1="600" x2="1200" y2="600" stroke="white" stroke-width="1"/>
    <line x1="200" y1="0" x2="200" y2="720" stroke="white" stroke-width="1"/>
    <line x1="400" y1="0" x2="400" y2="720" stroke="white" stroke-width="1"/>
    <line x1="600" y1="0" x2="600" y2="720" stroke="white" stroke-width="1"/>
    <line x1="800" y1="0" x2="800" y2="720" stroke="white" stroke-width="1"/>
    <line x1="1000" y1="0" x2="1000" y2="720" stroke="white" stroke-width="1"/>
  </g>

  <!-- === LEFT WINDOW === -->
  <!-- Window shadow -->
  <rect x="60" y="90" width="510" height="560" rx="10" fill="#000" opacity="0.4" transform="translate(4,8)" filter="url(#shadow)"/>
  <!-- Window frame -->
  <rect x="60" y="90" width="510" height="560" rx="10" fill="#1E2228"/>
  <!-- Title bar -->
  <rect x="60" y="90" width="510" height="44" rx="10" fill="url(#win1Header)"/>
  <rect x="60" y="112" width="510" height="22" fill="url(#win1Header)"/>
  <!-- Traffic lights -->
  <circle cx="90" cy="112" r="7" fill="#FF5F57"/>
  <circle cx="114" cy="112" r="7" fill="#FFBD44"/>
  <circle cx="138" cy="112" r="7" fill="#28C840"/>
  <!-- Window title -->
  <text x="160" y="118" font-family="Roboto, -apple-system, Arial, sans-serif" font-size="13" fill="rgba(255,255,255,0.9)" font-weight="500">FastMediaSorter — Photos</text>
  <!-- Window title icon -->
  <text x="578" y="118" font-family="Arial" font-size="12" fill="rgba(255,255,255,0.6)" text-anchor="end">⬜ ⬜</text>

  <!-- Breadcrumb bar -->
  <rect x="60" y="134" width="510" height="34" fill="#252B35"/>
  <text x="76" y="157" font-family="Roboto, Arial, sans-serif" font-size="12" fill="#8B9AB0">DCIM</text>
  <text x="108" y="157" font-family="Arial" font-size="12" fill="#4A5568"> / </text>
  <text x="120" y="157" font-family="Roboto, Arial, sans-serif" font-size="12" fill="#8B9AB0">Camera</text>
  <text x="174" y="157" font-family="Arial" font-size="12" fill="#4A5568"> / </text>
  <rect x="185" y="144" width="76" height="18" rx="9" fill="rgba(25,118,210,0.3)"/>
  <text x="223" y="157" font-family="Roboto, Arial, sans-serif" font-size="12" fill="#90CAF9" text-anchor="middle">2847 files</text>

  <!-- Photo grid content -->
  <rect x="60" y="168" width="510" height="482" fill="#1A1F27"/>

  <!-- Row 1 thumbnails -->
  <!-- Thumb 1 -->
  <rect x="72" y="180" width="152" height="112" rx="6" fill="url(#photo1)"/>
  <!-- Mountain silhouette in thumb -->
  <polygon points="72,292 148,200 224,292" fill="rgba(0,0,0,0.3)"/>
  <rect x="72" y="272" width="152" height="20" rx="0" fill="rgba(0,0,0,0.45)"/>
  <text x="148" y="286" font-family="Roboto, Arial, sans-serif" font-size="10" fill="rgba(255,255,255,0.9)" text-anchor="middle">IMG_4821.jpg</text>

  <!-- Thumb 2 -->
  <rect x="236" y="180" width="152" height="112" rx="6" fill="url(#photo2)"/>
  <ellipse cx="312" cy="220" rx="30" ry="30" fill="rgba(255,255,255,0.25)"/>
  <ellipse cx="312" cy="220" rx="18" ry="18" fill="rgba(255,255,255,0.4)"/>
  <rect x="236" y="272" width="152" height="20" rx="0" fill="rgba(0,0,0,0.45)"/>
  <text x="312" y="286" font-family="Roboto, Arial, sans-serif" font-size="10" fill="rgba(255,255,255,0.9)" text-anchor="middle">IMG_4822.jpg</text>

  <!-- Thumb 3 -->
  <rect x="400" y="180" width="158" height="112" rx="6" fill="url(#photo3)"/>
  <polygon points="400,292 479,210 558,292" fill="rgba(0,0,0,0.2)"/>
  <polygon points="430,292 490,240 550,292" fill="rgba(0,0,0,0.15)"/>
  <rect x="400" y="272" width="158" height="20" rx="0" fill="rgba(0,0,0,0.45)"/>
  <text x="479" y="286" font-family="Roboto, Arial, sans-serif" font-size="10" fill="rgba(255,255,255,0.9)" text-anchor="middle">IMG_4823.jpg</text>

  <!-- Row 2 thumbnails -->
  <rect x="72" y="304" width="152" height="112" rx="6" fill="url(#photo4)"/>
  <circle cx="148" cy="360" r="28" fill="rgba(255,255,255,0.2)"/>
  <circle cx="148" cy="360" r="14" fill="rgba(255,255,255,0.35)"/>
  <rect x="72" y="396" width="152" height="20" rx="0" fill="rgba(0,0,0,0.45)"/>
  <text x="148" y="410" font-family="Roboto, Arial, sans-serif" font-size="10" fill="rgba(255,255,255,0.9)" text-anchor="middle">IMG_4824.jpg</text>

  <rect x="236" y="304" width="152" height="112" rx="6" fill="url(#photo5)"/>
  <rect x="256" y="320" width="112" height="68" rx="4" fill="rgba(255,255,255,0.15)"/>
  <text x="312" y="360" font-family="Arial" font-size="24" fill="rgba(255,255,255,0.7)" text-anchor="middle">🌊</text>
  <rect x="236" y="396" width="152" height="20" rx="0" fill="rgba(0,0,0,0.45)"/>
  <text x="312" y="410" font-family="Roboto, Arial, sans-serif" font-size="10" fill="rgba(255,255,255,0.9)" text-anchor="middle">IMG_4825.jpg</text>

  <rect x="400" y="304" width="158" height="112" rx="6" fill="url(#photo6)"/>
  <polygon points="400,416 479,324 558,416" fill="rgba(0,0,0,0.25)"/>
  <rect x="400" y="396" width="158" height="20" rx="0" fill="rgba(0,0,0,0.45)"/>
  <text x="479" y="410" font-family="Roboto, Arial, sans-serif" font-size="10" fill="rgba(255,255,255,0.9)" text-anchor="middle">IMG_4826.jpg</text>

  <!-- Row 3 thumbnails -->
  <rect x="72" y="428" width="152" height="112" rx="6" fill="url(#photo2)"/>
  <ellipse cx="148" cy="484" rx="40" ry="28" fill="rgba(0,0,0,0.2)"/>
  <rect x="72" y="520" width="152" height="20" rx="0" fill="rgba(0,0,0,0.45)"/>
  <text x="148" y="534" font-family="Roboto, Arial, sans-serif" font-size="10" fill="rgba(255,255,255,0.9)" text-anchor="middle">IMG_4827.jpg</text>

  <rect x="236" y="428" width="152" height="112" rx="6" fill="url(#photo3)"/>
  <circle cx="312" cy="480" r="32" fill="rgba(255,255,255,0.18)"/>
  <rect x="236" y="520" width="152" height="20" rx="0" fill="rgba(0,0,0,0.45)"/>
  <text x="312" y="534" font-family="Roboto, Arial, sans-serif" font-size="10" fill="rgba(255,255,255,0.9)" text-anchor="middle">IMG_4828.jpg</text>

  <rect x="400" y="428" width="158" height="112" rx="6" fill="url(#photo1)"/>
  <polygon points="420,540 479,458 538,540" fill="rgba(0,0,0,0.3)"/>
  <rect x="400" y="520" width="158" height="20" rx="0" fill="rgba(0,0,0,0.45)"/>
  <text x="479" y="534" font-family="Roboto, Arial, sans-serif" font-size="10" fill="rgba(255,255,255,0.9)" text-anchor="middle">IMG_4829.jpg</text>

  <!-- Bottom status bar for left window -->
  <rect x="60" y="624" width="510" height="26" fill="#252B35"/>
  <text x="76" y="641" font-family="Roboto, Arial, sans-serif" font-size="11" fill="#8B9AB0">Selected: 0</text>
  <text x="565" y="641" font-family="Roboto, Arial, sans-serif" font-size="11" fill="#8B9AB0" text-anchor="end">Sort: Date ↓</text>

  <!-- === CENTER DIVIDER === -->
  <!-- Divider glow -->
  <line x1="600" y1="90" x2="600" y2="650" stroke="#4A90E2" stroke-width="1" opacity="0.3"/>
  <line x1="600" y1="90" x2="600" y2="650" stroke="white" stroke-width="2" stroke-dasharray="6,5" opacity="0.15"/>

  <!-- Resize handle -->
  <circle cx="600" cy="370" r="18" fill="#2D3748"/>
  <circle cx="600" cy="370" r="16" fill="#3A4558"/>
  <text x="600" y="376" font-family="Arial" font-size="16" fill="#90A4AE" text-anchor="middle">⇔</text>

  <!-- === RIGHT WINDOW === -->
  <!-- Window shadow -->
  <rect x="630" y="90" width="510" height="560" rx="10" fill="#000" opacity="0.4" transform="translate(4,8)" filter="url(#shadow)"/>
  <!-- Window frame -->
  <rect x="630" y="90" width="510" height="560" rx="10" fill="#1E2228"/>
  <!-- Title bar -->
  <rect x="630" y="90" width="510" height="44" rx="10" fill="url(#win2Header)"/>
  <rect x="630" y="112" width="510" height="22" fill="url(#win2Header)"/>
  <!-- Traffic lights -->
  <circle cx="660" cy="112" r="7" fill="#FF5F57"/>
  <circle cx="684" cy="112" r="7" fill="#FFBD44"/>
  <circle cx="708" cy="112" r="7" fill="#28C840"/>
  <!-- Window title -->
  <text x="730" y="118" font-family="Roboto, -apple-system, Arial, sans-serif" font-size="13" fill="rgba(255,255,255,0.9)" font-weight="500">FastMediaSorter — Videos</text>
  <text x="1148" y="118" font-family="Arial" font-size="12" fill="rgba(255,255,255,0.6)" text-anchor="end">⬜ ⬜</text>

  <!-- Breadcrumb bar -->
  <rect x="630" y="134" width="510" height="34" fill="#252B35"/>
  <text x="646" y="157" font-family="Roboto, Arial, sans-serif" font-size="12" fill="#8B9AB0">Downloads</text>
  <text x="712" y="157" font-family="Arial" font-size="12" fill="#4A5568"> / </text>
  <rect x="724" y="144" width="70" height="18" rx="9" fill="rgba(46,125,50,0.35)"/>
  <text x="759" y="157" font-family="Roboto, Arial, sans-serif" font-size="12" fill="#A5D6A7" text-anchor="middle">156 videos</text>

  <!-- Video list -->
  <rect x="630" y="168" width="510" height="482" fill="#1A1F27"/>

  <!-- Video item 1 -->
  <rect x="642" y="178" width="486" height="76" rx="8" fill="#252B35"/>
  <rect x="654" y="188" width="108" height="56" rx="6" fill="#1E4D9E"/>
  <!-- Play button -->
  <polygon points="672,216 672,232 690,224" fill="rgba(255,255,255,0.9)"/>
  <!-- Duration badge -->
  <rect x="708" y="228" width="44" height="16" rx="4" fill="rgba(0,0,0,0.7)"/>
  <text x="730" y="240" font-family="Roboto, Arial, sans-serif" font-size="10" fill="white" text-anchor="middle">14:32</text>
  <text x="772" y="199" font-family="Roboto, Arial, sans-serif" font-size="13" font-weight="600" fill="#E2E8F0">vacation_beach_2024.mp4</text>
  <text x="772" y="218" font-family="Roboto, Arial, sans-serif" font-size="12" fill="#718096">2.4 GB · MP4 · 4K</text>
  <text x="772" y="236" font-family="Roboto, Arial, sans-serif" font-size="11" fill="#4A5568">Modified: Aug 15, 2024</text>
  <rect x="1086" y="202" width="28" height="28" rx="6" fill="rgba(255,255,255,0.06)"/>
  <text x="1100" y="221" font-family="Arial" font-size="16" fill="#718096" text-anchor="middle">⋮</text>

  <!-- Video item 2 -->
  <rect x="642" y="262" width="486" height="76" rx="8" fill="#252B35"/>
  <rect x="654" y="272" width="108" height="56" rx="6" fill="#6A1B9A"/>
  <polygon points="672,300 672,316 690,308" fill="rgba(255,255,255,0.9)"/>
  <rect x="708" y="312" width="36" height="16" rx="4" fill="rgba(0,0,0,0.7)"/>
  <text x="726" y="324" font-family="Roboto, Arial, sans-serif" font-size="10" fill="white" text-anchor="middle">8:17</text>
  <text x="772" y="283" font-family="Roboto, Arial, sans-serif" font-size="13" font-weight="600" fill="#E2E8F0">family_birthday_raw.mp4</text>
  <text x="772" y="302" font-family="Roboto, Arial, sans-serif" font-size="12" fill="#718096">1.1 GB · MP4 · 1080p</text>
  <text x="772" y="320" font-family="Roboto, Arial, sans-serif" font-size="11" fill="#4A5568">Modified: Sep 2, 2024</text>
  <rect x="1086" y="286" width="28" height="28" rx="6" fill="rgba(255,255,255,0.06)"/>
  <text x="1100" y="305" font-family="Arial" font-size="16" fill="#718096" text-anchor="middle">⋮</text>

  <!-- Video item 3 (selected) -->
  <rect x="642" y="346" width="486" height="76" rx="8" fill="#1E3A5F"/>
  <rect x="642" y="346" width="4" height="76" rx="2" fill="#42A5F5"/>
  <rect x="654" y="356" width="108" height="56" rx="6" fill="#0D47A1"/>
  <polygon points="672,384 672,400 690,392" fill="rgba(255,255,255,0.9)"/>
  <rect x="708" y="396" width="44" height="16" rx="4" fill="rgba(0,0,0,0.7)"/>
  <text x="730" y="408" font-family="Roboto, Arial, sans-serif" font-size="10" fill="white" text-anchor="middle">22:05</text>
  <text x="772" y="367" font-family="Roboto, Arial, sans-serif" font-size="13" font-weight="600" fill="#90CAF9">drone_footage_4k.mp4</text>
  <text x="772" y="386" font-family="Roboto, Arial, sans-serif" font-size="12" fill="#64B5F6">4.8 GB · MP4 · 4K</text>
  <text x="772" y="404" font-family="Roboto, Arial, sans-serif" font-size="11" fill="#42A5F5">Modified: Oct 11, 2024</text>
  <!-- checkmark -->
  <circle cx="1100" cy="384" r="12" fill="#1976D2"/>
  <text x="1100" y="389" font-family="Arial" font-size="14" fill="white" text-anchor="middle">✓</text>

  <!-- Video item 4 -->
  <rect x="642" y="430" width="486" height="76" rx="8" fill="#252B35"/>
  <rect x="654" y="440" width="108" height="56" rx="6" fill="#BF360C"/>
  <polygon points="672,468 672,484 690,476" fill="rgba(255,255,255,0.9)"/>
  <rect x="708" y="480" width="44" height="16" rx="4" fill="rgba(0,0,0,0.7)"/>
  <text x="730" y="492" font-family="Roboto, Arial, sans-serif" font-size="10" fill="white" text-anchor="middle">31:44</text>
  <text x="772" y="451" font-family="Roboto, Arial, sans-serif" font-size="13" font-weight="600" fill="#E2E8F0">interview_recording.mov</text>
  <text x="772" y="470" font-family="Roboto, Arial, sans-serif" font-size="12" fill="#718096">890 MB · MOV · 1080p</text>
  <text x="772" y="488" font-family="Roboto, Arial, sans-serif" font-size="11" fill="#4A5568">Modified: Nov 28, 2024</text>
  <rect x="1086" y="454" width="28" height="28" rx="6" fill="rgba(255,255,255,0.06)"/>
  <text x="1100" y="473" font-family="Arial" font-size="16" fill="#718096" text-anchor="middle">⋮</text>

  <!-- Video item 5 -->
  <rect x="642" y="514" width="486" height="76" rx="8" fill="#252B35"/>
  <rect x="654" y="524" width="108" height="56" rx="6" fill="#004D40"/>
  <polygon points="672,552 672,568 690,560" fill="rgba(255,255,255,0.9)"/>
  <rect x="708" y="564" width="36" height="16" rx="4" fill="rgba(0,0,0,0.7)"/>
  <text x="726" y="576" font-family="Roboto, Arial, sans-serif" font-size="10" fill="white" text-anchor="middle">3:22</text>
  <text x="772" y="535" font-family="Roboto, Arial, sans-serif" font-size="13" font-weight="600" fill="#E2E8F0">time_lapse_sunset.mp4</text>
  <text x="772" y="554" font-family="Roboto, Arial, sans-serif" font-size="12" fill="#718096">320 MB · MP4 · 4K</text>
  <text x="772" y="572" font-family="Roboto, Arial, sans-serif" font-size="11" fill="#4A5568">Modified: Jan 5, 2025</text>
  <rect x="1086" y="538" width="28" height="28" rx="6" fill="rgba(255,255,255,0.06)"/>
  <text x="1100" y="557" font-family="Arial" font-size="16" fill="#718096" text-anchor="middle">⋮</text>

  <!-- Bottom status bar right window -->
  <rect x="630" y="624" width="510" height="26" fill="#252B35"/>
  <text x="646" y="641" font-family="Roboto, Arial, sans-serif" font-size="11" fill="#A5D6A7">Selected: 1  (4.8 GB)</text>
  <text x="1135" y="641" font-family="Roboto, Arial, sans-serif" font-size="11" fill="#8B9AB0" text-anchor="end">Sort: Size ↓</text>

  <!-- === KEYBOARD HINT BAR === -->
  <rect x="0" y="665" width="1200" height="55" fill="rgba(15,18,26,0.85)"/>
  <!-- keyboard icon -->
  <text x="600" y="697" font-family="Roboto, Arial, sans-serif" font-size="12" fill="#4A5568" text-anchor="middle">⌨  Ctrl+W · Ctrl+T · Alt+Tab — full keyboard &amp; pointer support</text>

  <!-- === TOP BADGE === -->
  <rect x="370" y="22" width="460" height="44" rx="22" fill="url(#badgeGrad)"/>
  <!-- badge glow -->
  <rect x="370" y="22" width="460" height="44" rx="22" fill="none" stroke="rgba(66,165,245,0.5)" stroke-width="1.5"/>
  <text x="600" y="50" font-family="Roboto, -apple-system, Arial, sans-serif" font-size="16" font-weight="700" fill="white" text-anchor="middle" letter-spacing="0.5">Googlebook · Multi-Window Support</text>

  <!-- Corner decorations -->
  <circle cx="30" cy="30" r="50" fill="rgba(25,118,210,0.06)"/>
  <circle cx="1170" cy="690" r="60" fill="rgba(46,125,50,0.06)"/>
</svg>
